# xmcd
# 
# Track frame offsets:
#     187
#     20595
#     40837
#     60480
#     82847
#     110235
#     131007
#     155647
#     178272
#     196360
# 
# Disc length: 2845
# 
# Revision: 5
# Processed by: cddbd v1.5.2PL0 Copyright (c) Steve Scherf et al.
# Submitted via: fre:ac v1.0.17
# 
DISCID=870b1b0a
DTITLE=Whitney Houston - Whitney Houston
DYEAR=1985
DGENRE=Pop
TTITLE0=How Will I Know
TTITLE1=All At Once
TTITLE2=Take Good Care Of My Heart
TTITLE3=Greatest Love Of All
TTITLE4=Hold Me
TTITLE5=You Give Good Love
TTITLE6=Thinking About You
TTITLE7=Someone For Me
TTITLE8=Saving All My Love For You
TTITLE9=Nobody Loves Me Like You Do
EXTD=YEAR: 1985
EXTT0=
EXTT1=
EXTT2=
EXTT3=
EXTT4=
EXTT5=
EXTT6=
EXTT7=
EXTT8=
EXTT9=
PLAYORDER=
